<svg width="58" height="60" viewBox="0 0 58 60" fill="none" xmlns="http://www.w3.org/2000/svg">
<path fill-rule="evenodd" clip-rule="evenodd" d="M29 0C27.3308 6.00213 21.4717 10.435 14.5 10.435C7.5283 10.435 1.66923 6.00213 0 0C0 0 4.53649 2.38162 8.19565 2.4553C11.8548 2.52897 17.8402 0.359186 17.8402 0.359186L29 0Z" transform="translate(0 38.9285) scale(2)" fill="#111111"/>
<path fill-rule="evenodd" clip-rule="evenodd" d="M28.9785 18.5541C29.085 18.0419 28.7948 14.6516 28.1222 13.5178C27.4987 12.4661 27.2168 10.4283 26.3155 10.1136C26.0424 11.8201 24.4573 10.5755 24.4135 10.5292C22.978 9.01616 21.5411 5.25938 19.7132 4.73059C19.2939 8.21309 17.678 5.57904 17.0504 4.40744C16.5344 3.44469 16.012 3.28326 15.5905 2.59566C15.139 1.85861 15.171 0.762351 14.5313 0C14.0654 0.603249 14.24 0.67451 13.849 1.33593L12.7107 3.72479C12.5876 4.08895 12.388 4.96706 12.2901 5.19044C11.8288 6.24482 11.0557 5.58427 10.5653 6.79775C10.0997 7.95073 10.3046 8.72006 9.61934 9.53302C8.67451 9.26659 9.48059 8.83757 8.32087 8.88701C6.90392 14.647 5.40878 11.3151 3.94539 13.4312C3.20047 14.5082 2.52492 14.7115 1.76795 15.5931C0.58324 16.973 0.712293 17.2162 0 18.5541C0.611461 19.541 4.07386 25.785 14.1815 21.2661C22.1749 17.692 21.8982 26.2698 28.9785 18.5541ZM14.3053 7.83148C14.3871 7.8882 14.4905 7.92718 14.5629 7.98273C14.6414 8.04323 14.7816 8.11856 14.8777 8.19971C15.0009 8.30384 15.1252 8.4356 15.2131 8.54904C15.2352 8.57784 15.2252 8.55282 15.2455 8.58162C15.2722 8.61972 15.2466 8.59325 15.2616 8.62001C15.3046 8.69709 15.3663 8.73694 15.4166 8.87684L15.4786 9.03623C15.4853 9.05543 15.4903 9.1011 15.4971 9.12495C15.5518 9.32477 15.5247 9.63657 15.3948 9.83232L15.2746 9.98794C15.2572 9.99114 15.2378 9.99375 15.2193 9.99841L14.2636 10.1814C14.1945 10.2075 14.0916 10.2192 13.999 10.2558C13.992 10.2587 13.9611 10.2663 13.9455 10.2704L13.8858 10.2931C13.8829 10.2942 13.7897 10.3221 13.7897 10.3221C13.7606 10.3349 13.7935 10.3271 13.7409 10.3434C13.7256 10.3483 14.2492 10.2427 14.2492 10.2427C14.4573 10.1875 15.5735 10.5999 15.7749 10.656C15.8731 10.6831 15.9748 10.7052 16.0736 10.7221C16.2688 10.7555 16.4652 10.7427 16.6674 10.7942C16.7612 10.8181 16.8705 10.857 16.9255 10.9303C16.9623 10.9801 16.9811 10.9812 16.9961 11.0254C16.9996 11.0359 17.0017 11.0545 17.0111 11.0784C17.0857 11.2727 17.0131 11.5275 16.8858 11.686C16.8573 11.7218 16.8276 11.7285 16.7932 11.7602C16.7136 11.8329 16.571 11.8945 16.4666 11.9236C16.4199 11.9364 16.4049 11.9309 16.3482 11.9521L15.9716 12.0269C15.9589 12.0278 15.9242 12.0304 15.9134 12.0327C15.7199 12.072 15.5077 12.0862 15.3084 12.0699C15.1355 12.0557 15.0982 12.0885 14.8477 12.0019C14.7495 11.9678 14.6787 11.9228 14.5937 11.866L14.3882 11.6514C14.3756 11.6322 14.3659 11.6115 14.355 11.5958C14.3383 11.5714 14.3324 11.5752 14.3153 11.5441C14.3103 11.5353 14.1216 11.1776 14.1216 11.1776C14.0896 11.1083 14.0281 11.0426 13.9879 10.9716C13.9223 10.8553 13.8326 10.7788 13.7195 10.7037C13.6821 10.6787 13.6933 10.6799 13.6774 10.6677C13.6574 10.6523 13.6342 10.6418 13.6101 10.6313C13.5595 10.6089 13.5093 10.5912 13.4581 10.574C13.3132 10.5255 13.2782 10.5106 13.1459 10.5766C13.0792 10.6101 12.9604 10.6607 12.9604 10.6607C12.9437 10.6674 12.8746 10.7078 12.8587 10.7183C12.8014 10.7523 12.8287 10.7366 12.7999 10.7468C12.7302 10.7715 12.7 10.7997 12.6382 10.8297L12.172 11.0923C12.1273 11.1133 12.1582 11.1066 12.1191 11.1328L11.4632 11.5859C11.4168 11.6255 11.3659 11.6383 11.3142 11.6912L10.7492 12.1738C10.636 12.257 10.5481 12.3753 10.4358 12.4696L10.1524 12.7776C10.0686 12.8689 9.94369 12.9902 9.87137 13.0868C9.8458 13.1208 9.8214 13.1659 9.79523 13.1918L9.67441 13.3503C9.63237 13.4018 9.67588 13.3361 9.62767 13.3951L9.28519 13.8817C9.26609 13.9029 9.26256 13.907 9.24345 13.9396C9.1482 14.1042 9.03502 14.2569 8.95007 14.4262L8.80984 14.6822C8.47236 15.3986 8.29686 15.8418 8.11724 16.6019C8.08697 16.7307 8.08844 16.9215 8.03728 17.0539L7.83062 17.1024C7.79535 17.1135 7.82827 17.1059 7.78182 17.1237C7.75507 17.1338 7.74713 17.1324 7.72861 17.1397C7.70804 17.1475 7.71392 17.1513 7.67982 17.1615C7.65336 17.169 7.66423 17.1597 7.62602 17.1746C7.6219 17.176 6.78702 17.5396 6.78702 17.5396C6.7491 17.5611 6.78555 17.5477 6.74058 17.5667L6.36694 17.7572C6.33754 17.772 6.34342 17.7711 6.32225 17.7848L6.17703 17.8561C6.15645 17.8665 6.14734 17.8753 6.13147 17.8846L5.9542 17.9843C5.83191 18.0533 5.72138 18.1039 5.60937 18.1812L5.29541 18.3683C5.23074 18.4049 5.18547 18.4602 5.12256 18.4971C5.07464 18.5248 5.03054 18.5658 5.00879 18.6338C5.04024 18.66 5.02937 18.6481 5.04554 18.6772C5.13255 18.7537 5.82956 18.8715 6.02652 18.9052C6.11736 18.9206 6.13588 18.9104 6.20702 18.9189C6.33019 18.934 6.46601 18.9698 6.58359 18.9576C6.66708 18.9488 6.76674 18.9814 6.85375 18.9785C6.91696 18.9765 6.85405 18.9677 6.9346 18.9692L7.28119 18.9721C7.36497 18.9698 7.30735 18.9552 7.41877 18.9578L7.77389 18.9125C7.9391 18.8994 7.94557 18.8808 8.15781 19.0207C8.19956 19.0486 8.18045 19.0407 8.20014 19.0576C8.30715 19.1507 8.34772 19.1519 8.5144 19.3124C8.52351 19.3217 8.55556 19.345 8.56879 19.3549L8.968 19.6937C9.01062 19.7225 9.02885 19.7478 9.06707 19.7746L9.41689 20.009C9.44247 20.0227 9.70381 20.1286 9.70116 20.1443C9.83257 20.2062 10.25 20.3752 10.3567 20.3525C10.3705 20.3461 10.3991 20.3677 10.3823 20.2568L10.3185 20.0378C10.3173 20.0349 10.0589 19.2429 10.0589 19.2429C9.98867 19.0323 9.94928 19.0393 9.88754 18.8633L9.76407 18.6402C9.76231 18.6373 9.65413 18.4564 9.65413 18.4564C9.62267 18.4148 9.65031 18.4442 9.62826 18.4102C9.57505 18.3328 9.60503 18.3636 9.58093 18.3278C9.56359 18.302 9.56182 18.3162 9.54007 18.2871C9.50891 18.2452 9.53977 18.2758 9.51655 18.2391C9.4948 18.2054 9.46951 18.1958 9.44688 18.1586L9.38632 18.0707C9.38485 18.0681 9.04737 17.6717 9.04737 17.6717C8.9971 17.6024 8.92772 17.5576 8.87275 17.4986L8.82072 17.4279C8.86217 17.3485 8.99681 17.2115 9.05266 17.1353L9.21817 16.948C9.25668 16.9157 9.26579 16.8921 9.30077 16.8523L9.92341 16.2735C9.94604 16.2578 9.92958 16.2816 9.9678 16.2464C9.98044 16.2348 9.99043 16.2173 10.0145 16.197C10.0331 16.1813 10.6092 15.7915 10.6092 15.7915C10.6122 15.7898 10.9711 15.5804 10.9711 15.5804C11.0828 15.5111 11.174 15.48 11.2669 15.4262L11.5893 15.2793C11.6067 15.2741 11.6317 15.268 11.6511 15.2595L12.595 14.9274C12.7017 14.8852 12.921 14.8555 13.0145 14.8218C13.0327 14.8151 13.0401 14.8125 13.068 14.8072L13.8653 14.6534C13.9452 14.642 13.8991 14.6496 13.9232 14.6423L14.2904 14.5789C14.3124 14.5769 14.34 14.5783 14.3638 14.5766L14.7454 14.5362C14.8019 14.5321 14.8036 14.5199 14.8724 14.5196C15.0485 14.5193 15.2328 14.4992 15.4057 14.5079C15.4221 14.5085 15.4551 14.512 15.4701 14.5114L15.8349 14.5388C15.7876 14.6452 15.5974 14.9701 15.5065 15.0606C15.4533 15.1138 15.4421 15.1624 15.3954 15.2144L15.2428 15.3805C15.1823 15.441 15.1249 15.5277 15.0509 15.5844C14.9812 15.6379 14.9127 15.7194 14.8292 15.781L14.6869 15.9026C14.6314 15.9497 14.6781 15.8974 14.6308 15.9329L14.4826 16.042C14.4285 16.0737 14.3183 16.1365 14.2989 16.1807C14.5667 16.2717 14.8895 16.3866 15.1679 16.3924C15.1911 16.393 15.2264 16.3997 15.2469 16.4029C15.4371 16.4332 15.4521 16.4375 15.6097 16.4317C15.6315 16.4308 15.6638 16.4364 15.6876 16.4381C15.829 16.4497 16.2852 16.4227 16.4199 16.3866L17.036 16.2386C17.0563 16.2333 17.0757 16.2325 17.1007 16.222L17.6116 16.0152C17.6807 15.9884 17.7057 15.955 17.7789 15.921C17.7819 15.9198 17.828 15.8959 17.828 15.8959C17.8609 15.8779 17.8633 15.884 17.8859 15.8706L17.9932 15.7985C18.0167 15.7799 18.0041 15.7831 18.0373 15.7668L18.2155 15.6455C18.2763 15.5961 18.343 15.5603 18.3916 15.5018C18.5 15.5498 18.6023 15.6187 18.6893 15.688C18.7437 15.7313 18.834 15.7787 18.8907 15.8328C18.9407 15.8802 19.0039 15.9029 19.0565 15.9483C19.1609 16.0446 19.2767 16.1068 19.3531 16.174C19.3849 16.2019 19.3555 16.1888 19.4116 16.2287L19.7368 16.4855C19.8588 16.5702 19.9919 16.6938 20.1042 16.7959C20.1304 16.8191 20.148 16.822 20.1736 16.8441L20.4738 17.1164C20.5146 17.158 20.5478 17.1676 20.5946 17.2191L20.9515 17.5358C20.9944 17.5815 21.1652 17.6882 21.2307 17.7217C21.2963 17.7548 21.3351 17.7796 21.3807 17.8092C21.5535 17.9221 22.0353 18.0419 22.2611 18.0707L22.747 18.0213C22.8476 17.9916 22.8858 17.948 22.924 17.8299C22.9622 17.8575 23.0096 17.8936 23.0657 17.8878C23.1495 17.8787 23.2215 17.7211 23.2568 17.548C23.3188 17.2406 23.2459 17.2871 23.213 17.1004C23.1977 17.0163 23.1662 16.9058 23.1639 16.8104C23.1627 16.7586 23.1724 16.6932 23.1671 16.6501L23.1824 16.2552C23.1792 16.1728 23.2112 16.0766 23.2012 16.0004C23.1948 15.9489 23.2021 15.8962 23.205 15.8401C23.2097 15.7528 23.1901 15.7621 23.1906 15.6912C23.1909 15.6379 23.1971 15.578 23.1956 15.5286L23.1398 15.0725C23.1357 15.0428 23.138 15.0312 23.1368 15.0033C23.133 14.905 23.1357 14.9832 23.1169 14.9277L22.9372 14.1644C22.9202 14.115 22.9252 14.1647 22.9052 14.0975L22.7509 13.7069C22.6941 13.6089 22.6656 13.4937 22.6012 13.4018C22.546 13.323 22.5172 13.2305 22.4598 13.1499L22.2238 12.8049C22.1641 12.7101 22.0979 12.6438 22.0295 12.5589L21.8196 12.3087C21.8143 12.3023 21.7819 12.2718 21.7719 12.2634C21.687 12.1886 21.6543 12.1266 21.5676 12.0592C21.498 11.9998 21.5347 12.0324 21.5118 12.0042L21.057 11.6211C20.985 11.5752 21.0197 11.5731 20.9344 11.5269L20.7983 11.4233C20.7945 11.4207 19.8541 10.8599 19.8541 10.8599C19.6295 10.761 19.4475 10.6656 19.2129 10.5801C18.9604 10.4885 18.7511 10.4024 18.4962 10.3239C18.4627 10.3021 18.4033 10.0944 18.3751 10.04L18.2346 9.74012C18.1699 9.62843 18.1143 9.51325 18.0361 9.41087L17.8204 9.1043C17.8107 9.09237 17.7766 9.05979 17.7669 9.04729L17.5502 8.8018C17.5317 8.78231 17.4985 8.76166 17.4785 8.74275C17.4288 8.69563 17.4873 8.7349 17.4314 8.68575C17.2753 8.54962 17.1339 8.42717 16.9546 8.31577L16.6568 8.12554C16.5722 8.05923 16.4025 8.01822 16.3073 7.9615C15.9742 7.76284 15.5065 7.7035 15.1185 7.64737C15.0168 7.63253 14.7587 7.60926 14.6514 7.62235C14.6102 7.6273 14.6364 7.63282 14.572 7.63253C14.4512 7.63137 14.1163 7.6558 14.0452 7.68198L14.3053 7.83148ZM21.3376 14.3238C21.3353 14.3212 21.3332 14.3174 21.3309 14.3151C21.2944 14.2752 21.2521 14.2619 21.2212 14.2287C21.138 14.138 21.0648 14.1196 21.0187 14.0114C20.9749 13.9082 20.9787 13.8384 21.0016 13.6967C21.0198 13.5824 21.0292 13.4419 21.0898 13.3465C21.103 13.3436 21.0833 13.3326 21.1433 13.3442L21.2744 13.3954C21.33 13.4227 21.3147 13.4245 21.3423 13.4445C21.3617 13.4585 21.3894 13.4704 21.4094 13.4824C21.4561 13.51 21.5028 13.5367 21.5343 13.5714C21.5719 13.6132 21.6154 13.6313 21.6475 13.6671L21.8042 13.8372C21.8571 13.8893 21.8127 13.8523 21.8388 13.8907C21.8644 13.9282 21.8668 13.9088 21.8932 13.9457L22.0482 14.1758C22.0746 14.2197 22.077 14.1938 22.0999 14.2348L22.2037 14.4201C22.2269 14.4695 22.2145 14.4352 22.2395 14.4739L22.4062 14.7953C22.5117 15.0036 22.4868 15.2043 22.3421 15.1557L21.9223 14.8177C21.8677 14.7773 21.8727 14.7627 21.8006 14.7144C21.7348 14.6702 21.7542 14.6656 21.6877 14.6164L21.3967 14.3756C21.365 14.3535 21.3653 14.3549 21.3376 14.3238ZM14.6974 14.3202L14.2406 14.3624C14.2253 14.3635 14.2194 14.3618 14.2032 14.3644C14.1853 14.3676 14.1727 14.374 14.1718 14.3743C14.1195 14.3897 14.0868 14.3772 14.0439 14.3885L13.8026 14.4362C13.7538 14.4467 13.7161 14.4386 13.6659 14.4549L13.3016 14.5276C13.2478 14.5314 13.2772 14.525 13.2343 14.5407C13.197 14.5543 13.2487 14.5404 13.2046 14.5526C13.2046 14.5526 13.1723 14.5584 13.1714 14.5587L12.9833 14.5959C12.9115 14.609 12.9703 14.6029 12.9233 14.6192C12.8857 14.6323 12.8448 14.6265 12.7998 14.6416L11.4928 15.0939C11.4755 15.1003 11.4799 15.0968 11.4614 15.1029L11.345 15.1579C11.3211 15.1681 11.3338 15.1596 11.3135 15.1686L11.0671 15.2981C10.9995 15.3263 10.9208 15.3839 10.8496 15.4002L10.9928 15.1884C11.0383 15.1198 11.0145 15.1695 11.0542 15.123C11.0695 15.1046 11.088 15.0663 11.1001 15.0503L11.2759 14.8397C11.3447 14.7699 11.4146 14.6532 11.4993 14.5785C11.5675 14.5186 11.6086 14.4476 11.6763 14.3868L12.0793 14.0343C12.0816 14.0328 12.0863 14.0317 12.0887 14.0302L12.5238 13.7516C12.5267 13.7504 12.5302 13.7478 12.5332 13.7463L12.9985 13.5453C13.0394 13.5305 12.9959 13.5448 13.0262 13.5299C13.0626 13.5116 13.0332 13.5229 13.0662 13.5154L13.6462 13.3667C13.7376 13.3595 13.817 13.3234 13.9037 13.3193L14.2253 13.3033C14.3391 13.3033 14.4258 13.2885 14.5437 13.3295C14.6213 13.3563 14.7209 13.3854 14.765 13.4377C14.7674 13.4403 14.7694 13.4444 14.7715 13.447C14.9779 13.6954 14.8329 14.0584 14.6974 14.3202ZM20.896 15.6232C20.9416 15.6619 21.0239 15.6846 21.0847 15.7143L21.688 16.1116C21.74 16.152 21.6912 16.1154 21.7194 16.1436C21.7571 16.1811 21.7847 16.1843 21.894 16.2905C21.9678 16.3617 21.9664 16.3364 22.0904 16.4752L22.3127 16.7061C22.3312 16.7268 22.3303 16.7183 22.3456 16.7375C22.3476 16.7401 22.3497 16.7439 22.3515 16.7465L22.3662 16.7742C22.3941 16.8129 22.4082 16.7992 22.4541 16.8719L22.7621 17.3222C22.8186 17.4495 22.8015 17.4429 22.8268 17.5423C22.8762 17.7392 22.6936 17.7951 22.5173 17.8021C22.4926 17.8029 22.4638 17.8003 22.4444 17.8021C22.3812 17.8073 22.4461 17.8143 22.3647 17.8131C22.2539 17.812 21.9055 17.7573 21.815 17.7308C21.6359 17.6779 21.4622 17.579 21.3032 17.513C21.247 17.4897 21.252 17.4679 21.1856 17.4312C21.1576 17.4158 21.1327 17.4056 21.1088 17.3873L20.5744 16.9275C20.5388 16.8873 20.4894 16.86 20.4506 16.8254L20.1085 16.5266C20.1043 16.5237 20.0829 16.508 20.0802 16.506C20.0361 16.467 20.0638 16.4725 19.9897 16.4219C19.9706 16.4086 19.9421 16.3931 19.9291 16.3809L19.445 15.9787C19.4235 15.9641 19.3997 15.9493 19.375 15.9312C19.3191 15.8917 19.2177 15.7931 19.1201 15.7317C19.0984 15.718 19.0678 15.6988 19.051 15.6826C18.954 15.5904 18.9202 15.6029 18.8605 15.5441C18.8297 15.5136 18.8376 15.5191 18.7979 15.495L18.459 15.2576C18.5175 15.2006 18.5245 15.2259 18.6803 15.1997L18.8423 15.2012C18.9305 15.1965 18.8356 15.1834 19.0455 15.1945C19.0801 15.1965 19.1295 15.2032 19.1607 15.2009L19.2668 15.1907C19.231 14.9839 19.29 14.9775 19.4062 14.9606C19.4503 14.9539 19.5264 14.9665 19.5758 14.9737C19.6728 14.9883 19.8071 14.9862 19.8892 15.0063C19.9506 15.0211 20.1693 15.0621 20.2255 15.0604C20.3604 15.056 20.799 15.1578 20.9369 15.2041C21.0897 15.2556 21.1479 15.2719 21.2373 15.3629L21.2694 15.394C21.2717 15.3966 21.2749 15.3996 21.2773 15.4022C21.3167 15.4493 21.3108 15.5066 21.2523 15.5371C21.1385 15.5959 21.1726 15.5671 21.0824 15.5854C20.9016 15.6226 20.9348 15.5764 20.896 15.6232Z" transform="translate(0 1.901) scale(2)" fill="url(#logo_gradient_id)"/>
<defs>
<linearGradient id="logo_gradient_id" x2="1" gradientUnits="userSpaceOnUse" gradientTransform="translate(28.6954 11.4448) scale(28.6954 22.6493) rotate(-180)">
<stop stop-color="#ffcc00"/>
<stop offset="1" stop-color="#ff6600" stop-opacity="0.995018"/>
</linearGradient>
</defs>
</svg>
